<mxfile host="app.diagrams.net" agent="Mozilla/5.0 (Macintosh; Intel Mac OS X 10_15_7) AppleWebKit/537.36 (KHTML, like Gecko) Chrome/132.0.0.0 YaBrowser/25.2.0.0 Safari/537.36" version="25.0.3">
  <diagram name="Страница — 1" id="J_hcXTHMyTm4rsnb15In">
    <mxGraphModel dx="956" dy="471" grid="0" gridSize="10" guides="1" tooltips="1" connect="1" arrows="1" fold="1" page="1" pageScale="1" pageWidth="827" pageHeight="1169" math="0" shadow="0">
      <root>
        <mxCell id="0" />
        <mxCell id="1" parent="0" />
        <mxCell id="iKPkTnT1p9gP-2vJkRi8-1" value="Пользователь" style="shape=umlActor;verticalLabelPosition=bottom;verticalAlign=top;html=1;outlineConnect=0;" vertex="1" parent="1">
          <mxGeometry x="34" y="390" width="30" height="60" as="geometry" />
        </mxCell>
        <mxCell id="iKPkTnT1p9gP-2vJkRi8-2" value="Пользователь" style="shape=umlActor;verticalLabelPosition=bottom;verticalAlign=top;html=1;outlineConnect=0;" vertex="1" parent="1">
          <mxGeometry x="34" y="96" width="30" height="60" as="geometry" />
        </mxCell>
        <mxCell id="iKPkTnT1p9gP-2vJkRi8-3" value="" style="endArrow=none;html=1;rounded=0;" edge="1" parent="1">
          <mxGeometry width="50" height="50" relative="1" as="geometry">
            <mxPoint x="50.13" y="380" as="sourcePoint" />
            <mxPoint x="50.00000000000001" y="180" as="targetPoint" />
          </mxGeometry>
        </mxCell>
        <mxCell id="iKPkTnT1p9gP-2vJkRi8-5" value="Веб-интерфейс" style="rounded=0;whiteSpace=wrap;html=1;" vertex="1" parent="1">
          <mxGeometry x="210" y="160" width="100" height="20" as="geometry" />
        </mxCell>
        <mxCell id="iKPkTnT1p9gP-2vJkRi8-6" value="Веб-интерфейс" style="rounded=0;whiteSpace=wrap;html=1;" vertex="1" parent="1">
          <mxGeometry x="210" y="390" width="100" height="20" as="geometry" />
        </mxCell>
        <mxCell id="iKPkTnT1p9gP-2vJkRi8-7" value="" style="endArrow=none;html=1;rounded=0;" edge="1" parent="1">
          <mxGeometry width="50" height="50" relative="1" as="geometry">
            <mxPoint x="260" y="380" as="sourcePoint" />
            <mxPoint x="259.73" y="190" as="targetPoint" />
          </mxGeometry>
        </mxCell>
        <mxCell id="iKPkTnT1p9gP-2vJkRi8-9" value="Сервер" style="rounded=0;whiteSpace=wrap;html=1;" vertex="1" parent="1">
          <mxGeometry x="364" y="160" width="100" height="20" as="geometry" />
        </mxCell>
        <mxCell id="iKPkTnT1p9gP-2vJkRi8-10" value="Сервер" style="rounded=0;whiteSpace=wrap;html=1;" vertex="1" parent="1">
          <mxGeometry x="364" y="390" width="100" height="20" as="geometry" />
        </mxCell>
        <mxCell id="iKPkTnT1p9gP-2vJkRi8-11" value="" style="endArrow=none;html=1;rounded=0;" edge="1" parent="1">
          <mxGeometry width="50" height="50" relative="1" as="geometry">
            <mxPoint x="410" y="380" as="sourcePoint" />
            <mxPoint x="410" y="190" as="targetPoint" />
          </mxGeometry>
        </mxCell>
        <mxCell id="iKPkTnT1p9gP-2vJkRi8-12" value="База Данных" style="rounded=0;whiteSpace=wrap;html=1;" vertex="1" parent="1">
          <mxGeometry x="520" y="160" width="100" height="20" as="geometry" />
        </mxCell>
        <mxCell id="iKPkTnT1p9gP-2vJkRi8-13" value="База Данных" style="rounded=0;whiteSpace=wrap;html=1;" vertex="1" parent="1">
          <mxGeometry x="520" y="390" width="100" height="20" as="geometry" />
        </mxCell>
        <mxCell id="iKPkTnT1p9gP-2vJkRi8-14" value="" style="endArrow=none;html=1;rounded=0;" edge="1" parent="1">
          <mxGeometry width="50" height="50" relative="1" as="geometry">
            <mxPoint x="570" y="380" as="sourcePoint" />
            <mxPoint x="569.73" y="190" as="targetPoint" />
          </mxGeometry>
        </mxCell>
        <mxCell id="iKPkTnT1p9gP-2vJkRi8-16" value="Внешние источники" style="rounded=0;whiteSpace=wrap;html=1;" vertex="1" parent="1">
          <mxGeometry x="660" y="160" width="120" height="20" as="geometry" />
        </mxCell>
        <mxCell id="iKPkTnT1p9gP-2vJkRi8-18" value="" style="endArrow=none;html=1;rounded=0;" edge="1" parent="1">
          <mxGeometry width="50" height="50" relative="1" as="geometry">
            <mxPoint x="720" y="380" as="sourcePoint" />
            <mxPoint x="719.74" y="190" as="targetPoint" />
          </mxGeometry>
        </mxCell>
        <mxCell id="iKPkTnT1p9gP-2vJkRi8-19" value="Внешние источники" style="rounded=0;whiteSpace=wrap;html=1;" vertex="1" parent="1">
          <mxGeometry x="660" y="390" width="120" height="20" as="geometry" />
        </mxCell>
        <mxCell id="iKPkTnT1p9gP-2vJkRi8-20" value="" style="endArrow=classic;html=1;rounded=0;entryX=0.996;entryY=0.844;entryDx=0;entryDy=0;entryPerimeter=0;" edge="1" parent="1" target="iKPkTnT1p9gP-2vJkRi8-21">
          <mxGeometry width="50" height="50" relative="1" as="geometry">
            <mxPoint x="60" y="220" as="sourcePoint" />
            <mxPoint x="290" y="220" as="targetPoint" />
          </mxGeometry>
        </mxCell>
        <mxCell id="iKPkTnT1p9gP-2vJkRi8-21" value="&lt;font face=&quot;Times New Roman&quot;&gt;Вводит название улицы, номер дома&lt;/font&gt;" style="text;html=1;align=center;verticalAlign=middle;resizable=0;points=[];autosize=1;strokeColor=none;fillColor=none;" vertex="1" parent="1">
          <mxGeometry x="50" y="195" width="210" height="30" as="geometry" />
        </mxCell>
        <mxCell id="iKPkTnT1p9gP-2vJkRi8-24" value="" style="endArrow=classic;html=1;rounded=0;entryX=0.975;entryY=0.875;entryDx=0;entryDy=0;entryPerimeter=0;" edge="1" parent="1" target="iKPkTnT1p9gP-2vJkRi8-25">
          <mxGeometry width="50" height="50" relative="1" as="geometry">
            <mxPoint x="260" y="230" as="sourcePoint" />
            <mxPoint x="430" y="230" as="targetPoint" />
          </mxGeometry>
        </mxCell>
        <mxCell id="iKPkTnT1p9gP-2vJkRi8-25" value="&lt;font face=&quot;Times New Roman&quot;&gt;Получение информации о&amp;nbsp;&lt;/font&gt;&lt;div&gt;&lt;font face=&quot;Times New Roman&quot;&gt;параметрах воды&lt;/font&gt;&lt;/div&gt;" style="text;html=1;align=center;verticalAlign=middle;resizable=0;points=[];autosize=1;strokeColor=none;fillColor=none;" vertex="1" parent="1">
          <mxGeometry x="254" y="195" width="160" height="40" as="geometry" />
        </mxCell>
        <mxCell id="iKPkTnT1p9gP-2vJkRi8-27" value="&lt;font face=&quot;Times New Roman&quot;&gt;Проверка наличия&amp;nbsp;&lt;/font&gt;&lt;div&gt;&lt;font face=&quot;Times New Roman&quot;&gt;посчитанного адреса&lt;/font&gt;&lt;/div&gt;" style="text;html=1;align=center;verticalAlign=middle;resizable=0;points=[];autosize=1;strokeColor=none;fillColor=none;" vertex="1" parent="1">
          <mxGeometry x="425" y="210" width="130" height="40" as="geometry" />
        </mxCell>
        <mxCell id="iKPkTnT1p9gP-2vJkRi8-30" value="" style="endArrow=classic;html=1;rounded=0;" edge="1" parent="1">
          <mxGeometry width="50" height="50" relative="1" as="geometry">
            <mxPoint x="410" y="250" as="sourcePoint" />
            <mxPoint x="570" y="250" as="targetPoint" />
          </mxGeometry>
        </mxCell>
        <mxCell id="iKPkTnT1p9gP-2vJkRi8-31" value="" style="endArrow=classic;html=1;rounded=0;" edge="1" parent="1">
          <mxGeometry width="50" height="50" relative="1" as="geometry">
            <mxPoint x="410" y="320" as="sourcePoint" />
            <mxPoint x="720" y="320" as="targetPoint" />
          </mxGeometry>
        </mxCell>
        <mxCell id="iKPkTnT1p9gP-2vJkRi8-32" value="&lt;font face=&quot;Times New Roman&quot;&gt;Запрос параметров для адреса&amp;nbsp;&lt;/font&gt;&lt;div&gt;&lt;br&gt;&lt;/div&gt;" style="text;html=1;align=center;verticalAlign=middle;resizable=0;points=[];autosize=1;strokeColor=none;fillColor=none;" vertex="1" parent="1">
          <mxGeometry x="400" y="290" width="180" height="40" as="geometry" />
        </mxCell>
        <mxCell id="iKPkTnT1p9gP-2vJkRi8-33" value="" style="endArrow=classic;html=1;rounded=0;" edge="1" parent="1">
          <mxGeometry width="50" height="50" relative="1" as="geometry">
            <mxPoint x="570" y="280" as="sourcePoint" />
            <mxPoint x="410" y="280" as="targetPoint" />
          </mxGeometry>
        </mxCell>
        <mxCell id="iKPkTnT1p9gP-2vJkRi8-34" value="&lt;font face=&quot;Times New Roman&quot;&gt;Результат проверки&lt;/font&gt;" style="text;html=1;align=center;verticalAlign=middle;resizable=0;points=[];autosize=1;strokeColor=none;fillColor=none;" vertex="1" parent="1">
          <mxGeometry x="430" y="250" width="120" height="30" as="geometry" />
        </mxCell>
        <mxCell id="iKPkTnT1p9gP-2vJkRi8-35" value="" style="endArrow=classic;html=1;rounded=0;" edge="1" parent="1">
          <mxGeometry width="50" height="50" relative="1" as="geometry">
            <mxPoint x="720" y="350" as="sourcePoint" />
            <mxPoint x="410" y="350" as="targetPoint" />
          </mxGeometry>
        </mxCell>
        <mxCell id="iKPkTnT1p9gP-2vJkRi8-36" value="&lt;font face=&quot;Times New Roman&quot;&gt;Получение параметров&lt;/font&gt;" style="text;html=1;align=center;verticalAlign=middle;resizable=0;points=[];autosize=1;strokeColor=none;fillColor=none;" vertex="1" parent="1">
          <mxGeometry x="420" y="325" width="140" height="30" as="geometry" />
        </mxCell>
        <mxCell id="iKPkTnT1p9gP-2vJkRi8-38" value="" style="endArrow=classic;html=1;rounded=0;" edge="1" parent="1">
          <mxGeometry width="50" height="50" relative="1" as="geometry">
            <mxPoint x="410" y="365" as="sourcePoint" />
            <mxPoint x="260" y="365" as="targetPoint" />
          </mxGeometry>
        </mxCell>
        <mxCell id="iKPkTnT1p9gP-2vJkRi8-39" value="&lt;font face=&quot;Times New Roman&quot;&gt;Рассчитанные параметры&amp;nbsp;&lt;/font&gt;&lt;div&gt;&lt;font face=&quot;Times New Roman&quot;&gt;воды&lt;/font&gt;&lt;/div&gt;" style="text;html=1;align=center;verticalAlign=middle;resizable=0;points=[];autosize=1;strokeColor=none;fillColor=none;" vertex="1" parent="1">
          <mxGeometry x="254" y="325" width="160" height="40" as="geometry" />
        </mxCell>
        <mxCell id="iKPkTnT1p9gP-2vJkRi8-40" value="" style="endArrow=classic;html=1;rounded=0;" edge="1" parent="1">
          <mxGeometry width="50" height="50" relative="1" as="geometry">
            <mxPoint x="260" y="370" as="sourcePoint" />
            <mxPoint x="50" y="370" as="targetPoint" />
          </mxGeometry>
        </mxCell>
        <mxCell id="iKPkTnT1p9gP-2vJkRi8-43" value="Сформированный веб-интерфейс&amp;nbsp;&lt;div&gt;с отображением параметров воды&lt;/div&gt;" style="text;html=1;align=center;verticalAlign=middle;resizable=0;points=[];autosize=1;strokeColor=none;fillColor=none;" vertex="1" parent="1">
          <mxGeometry x="45" y="330" width="220" height="40" as="geometry" />
        </mxCell>
        <mxCell id="iKPkTnT1p9gP-2vJkRi8-44" value="Пользователь" style="shape=umlActor;verticalLabelPosition=bottom;verticalAlign=top;html=1;outlineConnect=0;" vertex="1" parent="1">
          <mxGeometry x="37" y="968" width="30" height="60" as="geometry" />
        </mxCell>
        <mxCell id="iKPkTnT1p9gP-2vJkRi8-45" value="Пользователь" style="shape=umlActor;verticalLabelPosition=bottom;verticalAlign=top;html=1;outlineConnect=0;" vertex="1" parent="1">
          <mxGeometry x="37" y="608" width="30" height="60" as="geometry" />
        </mxCell>
        <mxCell id="iKPkTnT1p9gP-2vJkRi8-47" value="Веб-интерфейс" style="rounded=0;whiteSpace=wrap;html=1;" vertex="1" parent="1">
          <mxGeometry x="213" y="672" width="100" height="20" as="geometry" />
        </mxCell>
        <mxCell id="iKPkTnT1p9gP-2vJkRi8-48" value="Веб-интерфейс" style="rounded=0;whiteSpace=wrap;html=1;" vertex="1" parent="1">
          <mxGeometry x="213" y="968" width="100" height="20" as="geometry" />
        </mxCell>
        <mxCell id="iKPkTnT1p9gP-2vJkRi8-49" value="" style="endArrow=none;html=1;rounded=0;" edge="1" parent="1">
          <mxGeometry width="50" height="50" relative="1" as="geometry">
            <mxPoint x="260" y="960" as="sourcePoint" />
            <mxPoint x="260" y="700" as="targetPoint" />
          </mxGeometry>
        </mxCell>
        <mxCell id="iKPkTnT1p9gP-2vJkRi8-50" value="Сервер" style="rounded=0;whiteSpace=wrap;html=1;" vertex="1" parent="1">
          <mxGeometry x="367" y="672" width="100" height="20" as="geometry" />
        </mxCell>
        <mxCell id="iKPkTnT1p9gP-2vJkRi8-51" value="Сервер" style="rounded=0;whiteSpace=wrap;html=1;" vertex="1" parent="1">
          <mxGeometry x="364" y="912" width="100" height="20" as="geometry" />
        </mxCell>
        <mxCell id="iKPkTnT1p9gP-2vJkRi8-53" value="База Данных" style="rounded=0;whiteSpace=wrap;html=1;" vertex="1" parent="1">
          <mxGeometry x="523" y="672" width="100" height="20" as="geometry" />
        </mxCell>
        <mxCell id="iKPkTnT1p9gP-2vJkRi8-54" value="База Данных" style="rounded=0;whiteSpace=wrap;html=1;" vertex="1" parent="1">
          <mxGeometry x="520" y="912" width="100" height="20" as="geometry" />
        </mxCell>
        <mxCell id="iKPkTnT1p9gP-2vJkRi8-56" value="Внешние источники" style="rounded=0;whiteSpace=wrap;html=1;" vertex="1" parent="1">
          <mxGeometry x="663" y="672" width="120" height="20" as="geometry" />
        </mxCell>
        <mxCell id="iKPkTnT1p9gP-2vJkRi8-58" value="Внешние источники" style="rounded=0;whiteSpace=wrap;html=1;" vertex="1" parent="1">
          <mxGeometry x="660" y="912" width="120" height="20" as="geometry" />
        </mxCell>
        <mxCell id="iKPkTnT1p9gP-2vJkRi8-63" value="&lt;font face=&quot;Times New Roman&quot;&gt;&lt;font style=&quot;font-size: 10px;&quot;&gt;Запуск крон задачи&lt;/font&gt;&lt;br&gt;&lt;/font&gt;" style="text;html=1;align=center;verticalAlign=middle;resizable=0;points=[];autosize=1;strokeColor=none;fillColor=none;" vertex="1" parent="1">
          <mxGeometry x="435" y="697" width="110" height="30" as="geometry" />
        </mxCell>
        <mxCell id="iKPkTnT1p9gP-2vJkRi8-64" value="" style="endArrow=classic;html=1;rounded=0;" edge="1" parent="1">
          <mxGeometry width="50" height="50" relative="1" as="geometry">
            <mxPoint x="410" y="722" as="sourcePoint" />
            <mxPoint x="410" y="732" as="targetPoint" />
            <Array as="points">
              <mxPoint x="494" y="722" />
              <mxPoint x="494" y="732" />
            </Array>
          </mxGeometry>
        </mxCell>
        <mxCell id="iKPkTnT1p9gP-2vJkRi8-65" value="" style="endArrow=classic;html=1;rounded=0;" edge="1" parent="1">
          <mxGeometry width="50" height="50" relative="1" as="geometry">
            <mxPoint x="410" y="770" as="sourcePoint" />
            <mxPoint x="720" y="770" as="targetPoint" />
          </mxGeometry>
        </mxCell>
        <mxCell id="iKPkTnT1p9gP-2vJkRi8-76" value="&lt;font style=&quot;font-size: 10px;&quot; face=&quot;Times New Roman&quot;&gt;Получение адресов&amp;nbsp;&lt;/font&gt;&lt;div&gt;&lt;span style=&quot;font-size: 10px; font-family: &amp;quot;Times New Roman&amp;quot;; background-color: initial;&quot;&gt;домов города минска&lt;/span&gt;&lt;/div&gt;" style="text;html=1;align=center;verticalAlign=middle;resizable=0;points=[];autosize=1;strokeColor=none;fillColor=none;" vertex="1" parent="1">
          <mxGeometry x="435" y="732" width="110" height="40" as="geometry" />
        </mxCell>
        <mxCell id="iKPkTnT1p9gP-2vJkRi8-78" value="" style="endArrow=classic;html=1;rounded=0;" edge="1" parent="1">
          <mxGeometry width="50" height="50" relative="1" as="geometry">
            <mxPoint x="410" y="805" as="sourcePoint" />
            <mxPoint x="720" y="805" as="targetPoint" />
          </mxGeometry>
        </mxCell>
        <mxCell id="iKPkTnT1p9gP-2vJkRi8-79" value="&lt;font face=&quot;Times New Roman&quot;&gt;&lt;span style=&quot;font-size: 10px;&quot;&gt;Получение параметров воды для&lt;/span&gt;&lt;/font&gt;&lt;div&gt;&lt;font face=&quot;Times New Roman&quot;&gt;&lt;span style=&quot;font-size: 10px;&quot;&gt;каждого дома&lt;/span&gt;&lt;/font&gt;&lt;/div&gt;" style="text;html=1;align=center;verticalAlign=middle;resizable=0;points=[];autosize=1;strokeColor=none;fillColor=none;" vertex="1" parent="1">
          <mxGeometry x="410" y="770" width="160" height="40" as="geometry" />
        </mxCell>
        <mxCell id="iKPkTnT1p9gP-2vJkRi8-80" value="&lt;font face=&quot;Times New Roman&quot;&gt;&lt;span style=&quot;font-size: 10px;&quot;&gt;Агрегация результатов расчетов&lt;/span&gt;&lt;/font&gt;" style="text;html=1;align=center;verticalAlign=middle;resizable=0;points=[];autosize=1;strokeColor=none;fillColor=none;" vertex="1" parent="1">
          <mxGeometry x="410" y="807" width="160" height="30" as="geometry" />
        </mxCell>
        <mxCell id="iKPkTnT1p9gP-2vJkRi8-81" value="" style="endArrow=classic;html=1;rounded=0;" edge="1" parent="1">
          <mxGeometry width="50" height="50" relative="1" as="geometry">
            <mxPoint x="410" y="832" as="sourcePoint" />
            <mxPoint x="410" y="842" as="targetPoint" />
            <Array as="points">
              <mxPoint x="494" y="832" />
              <mxPoint x="494" y="842" />
            </Array>
          </mxGeometry>
        </mxCell>
        <mxCell id="iKPkTnT1p9gP-2vJkRi8-82" value="" style="endArrow=classic;html=1;rounded=0;" edge="1" parent="1">
          <mxGeometry width="50" height="50" relative="1" as="geometry">
            <mxPoint x="410" y="870" as="sourcePoint" />
            <mxPoint x="570" y="870" as="targetPoint" />
          </mxGeometry>
        </mxCell>
        <mxCell id="iKPkTnT1p9gP-2vJkRi8-84" value="&lt;font face=&quot;Times New Roman&quot;&gt;&lt;span style=&quot;font-size: 10px;&quot;&gt;Сохранение расчетов&lt;/span&gt;&lt;/font&gt;" style="text;html=1;align=center;verticalAlign=middle;resizable=0;points=[];autosize=1;strokeColor=none;fillColor=none;" vertex="1" parent="1">
          <mxGeometry x="435" y="845" width="110" height="30" as="geometry" />
        </mxCell>
        <mxCell id="iKPkTnT1p9gP-2vJkRi8-85" value="" style="endArrow=none;html=1;rounded=0;" edge="1" parent="1">
          <mxGeometry width="50" height="50" relative="1" as="geometry">
            <mxPoint x="410" y="900" as="sourcePoint" />
            <mxPoint x="410" y="700" as="targetPoint" />
          </mxGeometry>
        </mxCell>
        <mxCell id="iKPkTnT1p9gP-2vJkRi8-87" value="" style="endArrow=none;html=1;rounded=0;" edge="1" parent="1">
          <mxGeometry width="50" height="50" relative="1" as="geometry">
            <mxPoint x="570" y="900" as="sourcePoint" />
            <mxPoint x="570" y="700" as="targetPoint" />
          </mxGeometry>
        </mxCell>
        <mxCell id="iKPkTnT1p9gP-2vJkRi8-88" value="" style="endArrow=none;html=1;rounded=0;" edge="1" parent="1">
          <mxGeometry width="50" height="50" relative="1" as="geometry">
            <mxPoint x="720" y="900" as="sourcePoint" />
            <mxPoint x="720" y="700" as="targetPoint" />
          </mxGeometry>
        </mxCell>
        <mxCell id="iKPkTnT1p9gP-2vJkRi8-89" value="" style="endArrow=none;html=1;rounded=0;" edge="1" parent="1">
          <mxGeometry width="50" height="50" relative="1" as="geometry">
            <mxPoint x="50" y="960" as="sourcePoint" />
            <mxPoint x="50" y="700" as="targetPoint" />
          </mxGeometry>
        </mxCell>
        <mxCell id="iKPkTnT1p9gP-2vJkRi8-90" value="" style="endArrow=classic;html=1;rounded=0;" edge="1" parent="1">
          <mxGeometry width="50" height="50" relative="1" as="geometry">
            <mxPoint x="50" y="891.49" as="sourcePoint" />
            <mxPoint x="260" y="891.49" as="targetPoint" />
          </mxGeometry>
        </mxCell>
        <mxCell id="iKPkTnT1p9gP-2vJkRi8-91" value="&lt;font style=&quot;font-size: 10px;&quot; face=&quot;Times New Roman&quot;&gt;Получение тепловой карты&amp;nbsp;&lt;/font&gt;" style="text;html=1;align=center;verticalAlign=middle;resizable=0;points=[];autosize=1;strokeColor=none;fillColor=none;" vertex="1" parent="1">
          <mxGeometry x="83" y="861.49" width="140" height="30" as="geometry" />
        </mxCell>
      </root>
    </mxGraphModel>
  </diagram>
</mxfile>
